<svg xmlns="http://www.w3.org/2000/svg" viewBox="0 0 64 64" id="send-mail"><path fill="#399BB9" d="M3 24.043V58.5c0 .577.248 1.093.639 1.458l21.238-18.006L3 24.043z"></path><path fill="#399BB9" d="m60.412 59.912-21.289-17.96-5.856 4.794a2 2 0 0 1-2.534 0l-5.856-4.794L3.639 59.958c.357.334.834.542 1.361.542h54a2 2 0 0 0 2-2V24.043L39.123 41.952l21.289 17.96z"></path><path fill="#F15439" d="M43 25.5v-8h6l-12-14-12 14h6v8zM31 29.5h12v4H31z"></path><path d="M44 26.5H30v-8h-7.174L37 1.963 51.174 18.5H44v8zm-12-2h10v-8h4.826L37 5.037 27.174 16.5H32v8z"></path><path d="M59 61.5H5c-1.654 0-3-1.346-3-3v-35c0-1.654 1.346-3 3-3h26v2H5c-.551 0-1 .449-1 1v35c0 .551.449 1 1 1h54c.551 0 1-.449 1-1v-35c0-.551-.449-1-1-1H43v-2h16c1.654 0 3 1.346 3 3v35c0 1.654-1.346 3-3 3z"></path><path d="M32 48.195c-.675 0-1.35-.225-1.9-.675L2.367 24.817l1.267-1.548 27.733 22.702c.367.301.9.3 1.268 0L60.367 23.27l1.267 1.548L33.9 47.52c-.55.45-1.225.675-1.9.675z"></path><path d="m24.356 41.086 1.293 1.526-21.364 18.11-1.294-1.526zM39.645 41.081l21.411 18.064-1.29 1.528-21.41-18.063zM44 34.5H30v-6h14v6zm-12-2h10v-2H32v2z"></path></svg>